<svg data-v-0dd9719b="" version="1.0" xmlns="http://www.w3.org/2000/svg" xmlns:xlink="http://www.w3.org/1999/xlink" width="100%" height="100%" viewBox="0 0 340.000000 250.000000" preserveAspectRatio="xMidYMid meet" color-interpolation-filters="sRGB" style="margin: auto;"> <rect data-v-0dd9719b="" x="0" y="0" width="100%" height="100%" fill="#ffffff" fill-opacity="1" class="background"></rect> <rect data-v-0dd9719b="" x="0" y="0" width="100%" height="100%" fill="url(#watermark)" fill-opacity="1" class="watermarklayer"></rect> <g data-v-0dd9719b="" fill="#333" class="icon-text-wrapper icon-svg-group iconsvg" transform="translate(70.19560241706762,103.93583869934082)"><g class="iconsvg-imagesvg" transform="translate(0,0)"><g><rect fill="#333" fill-opacity="0" stroke-width="2" x="0" y="0" width="60" height="42.12832287146649" class="image-rect"></rect> <svg x="0" y="0" width="60" height="42.12832287146649" filtersec="colorsb4986875273" class="image-svg-svg primary" style="overflow: visible;"><svg xmlns="http://www.w3.org/2000/svg" viewBox="-0.0019837021827697754 0.015816323459148407 185.19198608398438 130.0301055908203"><path d="M127.48 46.51A63.78 63.78 0 0 0 93.85 6.85 67.63 67.63 0 0 0 69.1.12a64.81 64.81 0 0 0-25.27 3.6A64.1 64.1 0 0 0 .22 63.34C-.2 84.77.13 106.2 0 127.64c0 1.91.48 2.4 2.4 2.39 20-.08 40-.14 60 0A69.63 69.63 0 0 0 96 122.2c.33-.33 1-.34 1.07-.91a4.56 4.56 0 0 0 1.79-.75 55.39 55.39 0 0 0 11.48-8.76A64.9 64.9 0 0 0 129 77.24a64.17 64.17 0 0 0-1.52-30.73z" fill="#0f54ff"></path><circle cx="121.45" cy="65.01" r="63.74" fill="#1eaaff" opacity=".4"></circle></svg></svg> <!----></g></g> <g transform="translate(61,1.464111328125)"><g data-gra="path-name" fill-rule="" class="tp-name iconsvg-namesvg" transform="translate(0,0)"><g transform="scale(0.7599999999999998)"><g><path d="M7.6 0L0.14 0 12.55-30.02 19.89-30.02 32.31 0 24.84 0 21.91-6.93 10.53-6.93 7.6 0ZM20.52-12.29L16.25-22.77 11.97-12.29 20.52-12.29ZM47.07-11.38L41.94-11.38 41.94 0 35.55 0 35.55-30.02 50.22-30.02Q56.52-30.02 59-28.39L59-28.39Q60.7-27.31 61.63-25.54 62.55-23.76 62.55-21.64L62.55-21.64Q62.55-17.37 60.39-15.03L60.39-15.03Q59.04-13.63 56.84-12.91L56.84-12.91Q58.59-12.29 59.49-11.59 60.39-10.89 61.11-9.54L61.11-9.54Q61.65-8.46 61.9-7.47 62.14-6.48 62.28-4.54L62.28-4.54Q62.55-1.3 63 0L63 0 55.84 0Q55.53-1.03 55.17-4.27L55.17-4.27Q54.95-6.88 54.25-8.28 53.55-9.67 52.16-10.48L52.16-10.48Q50.4-11.43 47.07-11.38L47.07-11.38ZM41.94-24.66L41.94-16.74 50.89-16.74Q53.14-16.74 54.09-17.41L54.09-17.41Q55.53-18.4 55.53-20.88L55.53-20.88Q55.53-23.63 53.37-24.39L53.37-24.39Q52.61-24.66 50.89-24.66L50.89-24.66 41.94-24.66ZM74.34 0L74.34-24.66 64.8-24.66 64.8-30.02 90.68-30.02 90.68-24.66 80.73-24.66 80.73 0 74.34 0ZM93.6-13.14L93.6-30.02 99.95-30.02 99.95-13.14Q100.08-9.95 100.22-8.91L100.22-8.91Q100.53-6.84 102.2-6.1 103.86-5.35 108.05-5.35L108.05-5.35 114.17-5.35 114.17 0 107.37 0Q102.56 0 100.4-0.54L100.4-0.54Q95.45-1.98 94.09-6.84L94.09-6.84Q93.6-8.73 93.6-13.14L93.6-13.14ZM124.29 0L117.9 0 117.9-30.02 124.29-30.02 124.29 0ZM130.37-30.02L136.75-30.02 136.75 0 130.37 0 130.37-30.02ZM147.87 0L136.98-15.16 148.46-30.02 156.87-30.02 144.31-15.16 156.28 0 147.87 0ZM171.77-30.02L182.52-30.02 182.52-24.66 174.19-24.66Q170.96-24.66 169.47-24.21 167.99-23.76 167-22.45L167-22.45Q166.32-21.55 166.07-20.65 165.83-19.75 165.65-17.59L165.65-17.59 182.52-17.59 182.52-12.24 165.65-12.24Q166-8.37 167.94-6.86 169.88-5.35 174.51-5.35L174.51-5.35 182.52-5.35 182.52 0 174.19 0Q170.82 0 168.25-0.4L168.25-0.4Q164.21-1.08 161.82-3.96L161.82-3.96Q158.4-8.1 158.4-15.16L158.4-15.16Q158.4-22.99 163.22-27.36L163.22-27.36Q164.88-28.84 166.75-29.43 168.62-30.02 171.77-30.02L171.77-30.02Z" transform="translate(-0.14000000059604645, 30.020000457763672)"></path></g> <!----> <!----> <!----> <!----> <!----> <!----> <!----></g></g> <g data-gra="path-slogan" fill-rule="" class="tp-slogan iconsvg-slogansvg" fill="#333" transform="translate(38.31984329223633,27.81519889831543)"><!----> <!----> <g transform="scale(1, 1)"><g transform="scale(1.1600000000000001)"><path d="M7.17-6.09L7.17-6.09L6.09-6.09Q6-7.73 3.94-7.83L3.94-7.83Q2.02-7.78 2.02-6.33L2.02-6.33Q2.02-5.39 3.05-5.25L3.05-5.25L5.48-4.69Q7.41-4.22 7.41-2.34L7.41-2.34Q7.36 0.05 4.03 0.14L4.03 0.14Q2.20 0.14 1.45-0.61L1.45-0.61Q0.52-1.31 0.56-2.77L0.56-2.77L1.69-2.77Q1.73-0.80 4.03-0.75L4.03-0.75Q6.28-0.80 6.33-2.20L6.33-2.20Q6.52-3.38 4.45-3.75L4.45-3.75L2.67-4.13Q0.84-4.64 0.84-6.19L0.84-6.19Q0.98-8.72 3.84-8.81L3.84-8.81Q7.08-8.81 7.17-6.09ZM9.86-8.58L11.03-8.58L11.03-1.03L15.39-1.03L15.39 0L9.86 0L9.86-8.58ZM24.31-4.27L24.31-4.27Q24.13-7.64 21.31-7.83L21.31-7.83Q18.45-7.69 18.31-4.27L18.31-4.27Q18.45-0.94 21.31-0.80L21.31-0.80Q24.13-0.98 24.31-4.27ZM25.48-4.27L25.48-4.27Q25.20 0 21.31 0.14L21.31 0.14Q17.38 0 17.09-4.27L17.09-4.27Q17.33-8.72 21.31-8.81L21.31-8.81Q25.20-8.67 25.48-4.27ZM34.27-3.61L31.64-3.61L31.64-4.59L35.39-4.59L35.39 0L34.64 0L34.36-1.08Q33.38 0.09 31.55 0.14L31.55 0.14Q29.81 0.14 28.88-0.75L28.88-0.75Q27.47-2.06 27.52-4.36L27.52-4.36Q27.84-8.63 31.59-8.81L31.59-8.81Q34.78-8.63 35.25-6L35.25-6L34.13-6Q33.66-7.78 31.55-7.83L31.55-7.83Q28.88-7.64 28.73-4.31L28.73-4.31Q28.73-0.75 31.59-0.75L31.59-0.75Q32.63-0.75 33.38-1.31L33.38-1.31Q34.31-2.06 34.27-3.61L34.27-3.61ZM43.84 0L43-2.48L39.53-2.48L38.64 0L37.47 0L40.70-8.58L42.02-8.58L45.11 0L43.84 0ZM41.27-7.31L39.91-3.52L42.58-3.52L41.31-7.31L41.27-7.31ZM48.55-8.58L52.86-1.64L52.86-8.58L53.98-8.58L53.98 0L52.67 0L48.31-6.94L48.27-6.94L48.27 0L47.14 0L47.14-8.58L48.55-8.58Z" transform="translate(-0.5602678571428572, 8.8125)"></path></g></g></g></g></g></svg>